<?xml version="1.0" encoding="utf-8"?>
<!-- Generator: Adobe Illustrator 26.0.3, SVG Export Plug-In . SVG Version: 6.00 Build 0)  -->
<svg version="1.1" id="Layer_1" xmlns="http://www.w3.org/2000/svg" xmlns:xlink="http://www.w3.org/1999/xlink" x="0px" y="0px"
	 viewBox="0 0 512 512" style="enable-background:new 0 0 512 512;" xml:space="preserve">
<path d="M511.8,206.8c-0.1,72.5-30.8,141.6-84.6,190.2c-53.9,49-126.2,72.4-198.6,64.4C114.2,448.3,22.3,361.1,3.1,247.6
	c-5.5-35.7-4-72.2,4.4-107.3c7.3-28.5,36.4-45.7,64.9-38.4c9.6,2.5,18.4,7.6,25.2,14.7c88.9,97.3,227.1,88.8,307.4-17.2
	c18.2-23.2,51.7-27.2,74.9-9c7.9,6.2,13.9,14.5,17.3,24C506.9,144.2,511.9,175.4,511.8,206.8z M42.5,205.1c0,12,0.9,23.9,2.7,35.8
	c16,94.5,92.5,167.1,187.7,178c60.4,6.7,120.8-12.8,165.8-53.7c64.5-60.4,87.3-153.2,58.2-236.6c-2.1-5.5-8.2-8.3-13.7-6.2
	c-1.8,0.7-3.4,1.8-4.6,3.3c-95.5,126.5-266.4,136.5-372.2,20.2c-2.5-2.7-6.4-3.8-9.9-2.7c-3.8,0.9-6.7,3.8-7.7,7.6
	C44.5,168.5,42.4,186.8,42.5,205.1z"/>
</svg>
