<svg xmlns="http://www.w3.org/2000/svg" version="1.1" xmlns:xlink="http://www.w3.org/1999/xlink" width="512" height="512"><svg version="1.1" id="SvgjsSvg1081" xmlns="http://www.w3.org/2000/svg" xmlns:xlink="http://www.w3.org/1999/xlink" x="0px" y="0px" viewBox="0 0 512 512" style="enable-background:new 0 0 512 512;" xml:space="preserve">
<style type="text/css">
	.st0{fill:#00806B;stroke:#3EDF7B;stroke-width:10;stroke-miterlimit:10;}
</style>
<g>
	<path class="st0" d="M9.7,269.6c-3.8-10.7,1.9-22.5,12.7-26.2c4.1-1.4,8-3.5,11.4-6.1c21.2-16.1,52-16.1,73.1,0
		c14.6,11.1,36.1,11.1,50.6,0c21.2-16.1,51.9-16.1,73.1,0c14.6,11.1,36.1,11.1,50.6,0c21.2-16.1,51.9-16.1,73.1,0
		c14.6,11.1,36.1,11.1,50.6,0c21.2-16.1,51.9-16.1,73.1,0c3.5,2.7,7.3,4.7,11.5,6.2c10.7,3.7,16.4,15.5,12.7,26.2
		c-3.7,10.7-15.5,16.5-26.2,12.7c-8.2-2.9-16-7-22.9-12.3c-6.5-4.9-16.6-4.9-23.1,0c-14.5,11.1-31.9,16.9-50.3,16.9
		s-35.8-5.9-50.3-16.9c-6.5-4.9-16.6-4.9-23.2,0c-29,22.1-71.5,22.1-100.6,0c-6.5-4.9-16.6-4.9-23.2,0c-29,22.1-71.5,22.1-100.6,0
		c-6.5-4.9-16.6-4.9-23.2,0c-6.9,5.3-14.6,9.4-22.9,12.3C25.2,286.1,13.5,280.4,9.7,269.6z M503.4,379.7V390
		c0,45.5-37,82.5-82.5,82.5H91c-45.5,0-82.5-37-82.5-82.5v-10.3c0-28.4,23.1-51.5,51.5-51.5h391.8
		C480.3,328.2,503.4,351.3,503.4,379.7z M462.2,379.7c0-5.7-4.6-10.3-10.3-10.3H60.1c-5.7,0-10.3,4.6-10.3,10.3V390
		c0,22.7,18.5,41.2,41.2,41.2h329.9c22.7,0,41.2-18.5,41.2-41.2V379.7z M503.4,122v10.3c0,28.4-23.1,51.5-51.5,51.5H60.1
		c-28.4,0-51.5-23.1-51.5-51.5V122c0-45.5,37-82.5,82.5-82.5h329.9C466.4,39.5,503.4,76.5,503.4,122z M462.2,122
		c0-22.7-18.5-41.2-41.2-41.2H91c-22.7,0-41.2,18.5-41.2,41.2v10.3c0,5.7,4.6,10.3,10.3,10.3h391.8c5.7,0,10.3-4.6,10.3-10.3V122z"></path>
</g>
</svg><style>@media (prefers-color-scheme: light) { :root { filter: none; } }
@media (prefers-color-scheme: dark) { :root { filter: none; } }
</style></svg>